<svg id="visual" viewBox="0 0 1920 1080" width="1920" height="1080" xmlns="http://www.w3.org/2000/svg" xmlns:xlink="http://www.w3.org/1999/xlink" version="1.1"><rect x="0" y="0" width="1920" height="1080" fill="#fbfefc"></rect><path d="M0 753L53.3 739.8C106.7 726.7 213.3 700.3 320 688C426.7 675.7 533.3 677.3 640 667.7C746.7 658 853.3 637 960 661.8C1066.7 686.7 1173.3 757.3 1280 782C1386.7 806.7 1493.3 785.3 1600 749.5C1706.7 713.7 1813.3 663.3 1866.7 638.2L1920 613L1920 1081L1866.7 1081C1813.3 1081 1706.7 1081 1600 1081C1493.3 1081 1386.7 1081 1280 1081C1173.3 1081 1066.7 1081 960 1081C853.3 1081 746.7 1081 640 1081C533.3 1081 426.7 1081 320 1081C213.3 1081 106.7 1081 53.3 1081L0 1081Z" fill="#dfefe4"></path><path d="M0 786L53.3 782.7C106.7 779.3 213.3 772.7 320 796.8C426.7 821 533.3 876 640 881.5C746.7 887 853.3 843 960 846.3C1066.7 849.7 1173.3 900.3 1280 921.3C1386.7 942.3 1493.3 933.7 1600 921.5C1706.7 909.3 1813.3 893.7 1866.7 885.8L1920 878L1920 1081L1866.7 1081C1813.3 1081 1706.7 1081 1600 1081C1493.3 1081 1386.7 1081 1280 1081C1173.3 1081 1066.7 1081 960 1081C853.3 1081 746.7 1081 640 1081C533.3 1081 426.7 1081 320 1081C213.3 1081 106.7 1081 53.3 1081L0 1081Z" fill="#80c2a7"></path></svg>