<svg id="visual" viewBox="0 0 1920 1080" width="1920" height="1080" xmlns="http://www.w3.org/2000/svg" xmlns:xlink="http://www.w3.org/1999/xlink" version="1.1"><rect x="0" y="0" width="1920" height="1080" fill="#235d45"></rect><path d="M0 717L53.3 725.8C106.7 734.7 213.3 752.3 320 729.5C426.7 706.7 533.3 643.3 640 625.8C746.7 608.3 853.3 636.7 960 676.5C1066.7 716.3 1173.3 767.7 1280 787.8C1386.7 808 1493.3 797 1600 782.3C1706.7 767.7 1813.3 749.3 1866.7 740.2L1920 731L1920 1081L1866.7 1081C1813.3 1081 1706.7 1081 1600 1081C1493.3 1081 1386.7 1081 1280 1081C1173.3 1081 1066.7 1081 960 1081C853.3 1081 746.7 1081 640 1081C533.3 1081 426.7 1081 320 1081C213.3 1081 106.7 1081 53.3 1081L0 1081Z" fill="#4dcf99"></path><path d="M0 808L53.3 821C106.7 834 213.3 860 320 858.7C426.7 857.3 533.3 828.7 640 808.5C746.7 788.3 853.3 776.7 960 800.2C1066.7 823.7 1173.3 882.3 1280 894C1386.7 905.7 1493.3 870.3 1600 859.5C1706.7 848.7 1813.3 862.3 1866.7 869.2L1920 876L1920 1081L1866.7 1081C1813.3 1081 1706.7 1081 1600 1081C1493.3 1081 1386.7 1081 1280 1081C1173.3 1081 1066.7 1081 960 1081C853.3 1081 746.7 1081 640 1081C533.3 1081 426.7 1081 320 1081C213.3 1081 106.7 1081 53.3 1081L0 1081Z" fill="#0c1f17"></path></svg>